<svg id="图层_1" xmlns="http://www.w3.org/2000/svg" xmlns:xlink="http://www.w3.org/1999/xlink" viewBox="0 0 24 24" style="enable-background:new 0 0 24 24"><style>.st0{display:none}</style><title>Bilibili icon</title><path class="st0" d="M17.8 4.7h.9c1.5.1 2.8.6 3.8 1.6 1 1 1.5 2.2 1.6 3.8v7.4c0 1.5-.6 2.8-1.6 3.8s-2.3 1.5-3.8 1.6H5.3c-1.5.0-2.8-.6-3.8-1.6S0 18.9.0 17.3V10c0-1.5.6-2.8 1.6-3.8s2.3-1.5 3.8-1.6h.8L4.9 3.5C4.7 3.3 4.6 3 4.6 2.6s.1-.7.4-.9c.3-.2.6-.4.9-.4s.7.1.9.4l2.9 2.7c.1.1.1.1.2.2h4.3c0-.1.1-.2.2-.2l2.9-2.7c.3-.2.6-.4.9-.4s.7.2.9.4.4.6.4.9c0 .4-.1.7-.4.9L17.8 4.7zM5.3 7.2C4.6 7.3 4 7.5 3.5 8c-.6.5-.8 1.1-.8 1.9v7.5c0 .8.3 1.4.8 1.9s1.1.8 1.9.8h13.3c.7.0 1.4-.3 1.9-.8s.8-1.1.8-1.9V9.9c0-.8-.3-1.4-.8-1.9s-1.1-.8-1.9-.8H5.3zM8 11.1c.4.0.7.1.9.4.3.2.4.6.4 1v1.2c0 .4-.1.7-.4 1-.2.3-.6.4-.9.4s-.7-.1-.9-.4c-.3-.2-.4-.6-.4-1v-1.2c0-.4.1-.7.4-.9.2-.4.5-.5.9-.5zm8 0c.4.0.7.1.9.4.3.2.4.6.4 1v1.2c0 .4-.1.7-.4 1-.2.3-.6.4-.9.4s-.7-.1-.9-.4c-.3-.2-.4-.6-.4-1v-1.2c0-.4.1-.7.4-1C15.3 11.2 15.6 11.1 16 11.1z"/><g id="_x36_846e2ec-2cb3-4081-a396-06c80091ceff" transform="matrix(1.0913787841796876,0,0,1.0913787841796876,-10.533772591638268,0.34972255666379937)"><path d="M13.6 15.6c-.1.2-1.9 3.9-2.1 4.5 1.8.1 4.5.4 7.4.6l-2.5-5.1L13.6 15.6zm6.1 5.2h.5c-1.1-1.5-2.1-2.8-2.1-2.8S18.8 19.3 19.7 20.8z"/><path d="M27.9 7.2C27.7 7 27 6 26.8 5.7c-.4-.5-.3-.7-.1-1 .1-.2-.3-.6-.3-.8-.1-.8-.4-1.4-.7-1.8.3-.2.6-.5.6-.8-.1-.2-.4-.2-.6-.2V1c-.6-.8-2.8-1.2-3.8-1.2-3 0-4.3.5-5.1 3.3-.1.4-.2.9-.2 1.3-.1.1-.2.2-.2.2-.3.4-.3.7-.1.9.0.0.2.2-.1.4-.2.2-.5.4-.7.8L15.8 7C16 6.3 16.5 6 16.7 6.2c0 .1.1.1.1.2.2.7.6 1.4 1 2 1.1 1.4.4 2.7-.5 3.8 1.5 1.7 3.7 4.1 5 5.3-2.4-1.5-5.5-5.2-5.5-5.2l-1 .7c1.2 1.2 5.8 5.8 7.4 6.2 1 .2 1.6-.4 1.9-1.1.1.0.3.0.4.0.1.0.1.0.2-.1.0.2-.1.5-.1.6-.1.8-.5 1.6-1.5 1.7-2.3.1-6.7-5.1-8.2-6.9l-.7.4 1.2.9-1.7-.9-.4.6.2.1 2.1.8s2.7 3.1 4.9 5.8l4.6.4 1.7.1-2-3.6c.4-.2.5-.8.3-1.4-.3-.7-1-1.2-1.6-1.1-.1.0-.2.1-.3.1-.1-.1-.2-.3-.3-.4-.4-.7-1.1-1.1-1-2.6.2-2.5 2.8-1.2 3.5-1.6s.3-.9.3-1.2c0-.6.4-.5.4-.6.0-.3-.2-.3-.2-.3.0-.1.4-.2.3-.3C27.2 8.3 27 8 27 7.9 26.9 7.6 28.1 7.6 27.9 7.2zm-3 8.6c.3-.1.7.2.9.6.2.4.1.8-.3.9-.3.1-.7-.2-.9-.6C24.5 16.3 24.6 15.9 24.9 15.8zM24.1 17.2c.1.2.3.4.5.5-.2.2-.5.3-.9.3C23.8 17.8 24 17.6 24.1 17.2zM25 1.5c.4-.2 1.1-.2 1.1-.1.0.1-.5.6-.9.7-.4.2-.5.1-.6-.1C24.6 1.9 24.6 1.7 25 1.5zm-1.4.3c.2-.3.8-.7.9-.7.1.1-.1.7-.4 1.1-.2.3-.4.3-.6.2C23.4 2.3 23.4 2.1 23.6 1.8zm-1.3.5c.3-.4.9-.8 1-.7s-.1.8-.4 1.1c-.3.4-.5.3-.6.3C22.1 2.9 22 2.7 22.3 2.3zm-1.4.6c.3-.4.9-.8 1-.8C22 2.2 21.8 3 21.5 3.4s-.5.4-.6.3C20.7 3.5 20.6 3.3 20.9 2.9zm-1.5.7c.3-.4 1-.8 1.1-.8.1.1-.1.9-.4 1.3-.3.4-.5.4-.7.3C19.2 4.2 19.1 4 19.4 3.6zM18 4.2c.3-.4 1-.9 1.1-.8s-.1.9-.4 1.3c-.3.4-.5.4-.7.3C17.8 4.8 17.7 4.6 18 4.2zM16.5 5.6c-.2-.1-.2-.4.0-.8.3-.4 1-.9 1.1-.8s-.1.9-.4 1.3C16.9 5.7 16.6 5.7 16.5 5.6zM17.4 6.4c-.5-.1-.6-.3-.6-.5.0-.2.2-.4.7-.3C18 5.6 18.8 6 18.8 6.1 18.8 6.2 18 6.4 17.4 6.4zm1.5-.7c-.5-.1-.6-.3-.6-.5.0-.2.2-.4.7-.3.5.1 1.3.4 1.3.5C20.2 5.6 19.4 5.8 18.9 5.7zM20.3 5c-.5-.1-.6-.3-.6-.4.0-.2.2-.4.7-.3.5.1 1.2.4 1.2.5C21.6 4.9 20.8 5.1 20.3 5zm1.4-.6c-.5.0-.6-.2-.6-.4.0-.2.2-.3.6-.3C22.3 3.7 23 4 23 4.1 23 4.2 22.2 4.4 21.7 4.4zm1.4-.8c-.4.0-.5-.2-.5-.4.0-.2.2-.3.6-.3.4.0 1.1.4 1.1.5C24.2 3.5 23.5 3.7 23.1 3.6zM24.4 3c-.4.0-.5-.2-.5-.4.0-.2.2-.3.6-.3.4.0 1 .4 1 .4C25.5 2.9 24.8 3.1 24.4 3z"/></g></svg>